<svg xmlns="http://www.w3.org/2000/svg" viewBox="0 0 30 30"><path fill="#252525" d="M4.4 4.4C3 5.8 1.9 7.4 1.2 9.2c-1.6 3.7-1.6 7.9 0 11.7 1.5 3.6 4.4 6.5 8 8 3.7 1.6 7.9 1.6 11.7 0 3.6-1.5 6.5-4.4 8-8 1.6-3.7 1.6-7.9 0-11.7-1.5-3.6-4.4-6.5-8-8C17.2-.4 13-.4 9.2 1.2 7.4 1.9 5.8 3 4.4 4.4zM21 3.6l-3.2 3.2c-1.8-.6-3.8-.6-5.6 0L9 3.6c3.7-2 8.3-2 12 0zM2.1 15c0-2.1.5-4.2 1.5-6l3.2 3.2c-.6 1.8-.6 3.8 0 5.6L3.7 21c-1-1.8-1.6-3.9-1.6-6zM9 26.3l3.2-3.2c1.8.6 3.8.6 5.6 0l3.2 3.2c-3.7 2.1-8.3 2.1-12 0zM8.6 15c0-3.6 2.9-6.4 6.4-6.4 3.6 0 6.4 2.9 6.4 6.4 0 3.6-2.9 6.4-6.4 6.4-1.7 0-3.3-.7-4.5-1.9-1.3-1.1-2-2.8-1.9-4.5zm15 0c0-1-.2-1.9-.5-2.8L26.4 9c2 3.8 2 8.3 0 12.1l-3.2-3.2c.2-1 .4-1.9.4-2.9z"/></svg>