<svg xmlns="http://www.w3.org/2000/svg" viewBox="0 0 15.8 12.9"><path fill="#FFF" d="M14 2c.7-.4 1.2-1 1.4-1.8-.6.4-1.3.7-2.1.8C12.1-.3 10-.4 8.7.8c-.7.6-1 1.5-1 2.4 0 .2 0 .5.1.7-1.3 0-2.6-.3-3.7-.9C3 2.4 2 1.6 1.1.6.2 2.1.7 4 2.1 4.9c-.5 0-1-.2-1.5-.4 0 .8.3 1.5.7 2.1.5.6 1.1 1 1.9 1.1-.2.1-.5.2-.8.2h-.6c.4 1.3 1.6 2.2 3 2.3-1.1.9-2.6 1.4-4 1.4H0c1.5 1 3.2 1.5 5 1.5 1.1 0 2.2-.2 3.2-.5.9-.3 1.8-.8 2.6-1.5.7-.6 1.3-1.3 1.9-2.1.5-.8.9-1.6 1.2-2.5.3-.8.4-1.7.4-2.6v-.4c.6-.5 1.2-1 1.6-1.7-.7 0-1.3.2-1.9.2z"/></svg>