<svg xmlns="http://www.w3.org/2000/svg" viewBox="0 0 18.3 16"><path fill="#464646" d="M17.1 6.8h-16C.5 6.8 0 7.4 0 8s.5 1.1 1.1 1.1h.1l1 5.9c.2.6.7 1 1.2 1h11.4c.6 0 1-.4 1.1-.9l1-5.9h.1c.6 0 1.1-.5 1.1-1.1.2-.7-.3-1.3-1-1.3zM4.3 14c-.3 0-.6-.2-.6-.5l-.3-3.7c0-.3.2-.6.5-.6s.6.2.6.5l.3 3.7c.1.3-.2.6-.5.6zm3.7-.6c0 .3-.3.6-.6.6s-.6-.3-.6-.6V9.7c0-.3.3-.6.6-.6s.6.3.6.6v3.7zm3.4 0c0 .3-.3.6-.6.6s-.6-.3-.6-.6V9.7c0-.3.3-.6.6-.6s.6.3.6.6v3.7zm3.2.1c0 .3-.3.5-.6.5s-.5-.3-.5-.6l.3-3.7c0-.3.3-.6.6-.5.3 0 .5.3.5.6l-.3 3.7zM4.3 2.6c.1-.5.6-.9 1.1-.9h1.5c0 .3.3.6.6.6h3.4c.3 0 .6-.3.6-.6H13c.5 0 1 .4 1.1.9l.8 3.7H16l-.9-3.9c-.2-1-1.2-1.8-2.2-1.8h-1.5c0-.3-.3-.6-.6-.6H7.4c-.3 0-.5.3-.5.6H5.4c-1.1 0-2 .7-2.2 1.8l-1 3.9h1.2l.9-3.7z"/></svg>