<svg xmlns="http://www.w3.org/2000/svg" viewBox="0 0 23.1 14.7"><path fill="#FFF" d="M14.3 6.3h-7v2.5h4.2c0 .3-.1.5-.2.7-.1.3-.3.6-.5.8-.2.3-.5.6-.8.8-.3.3-.7.5-1.2.6-.5.2-1 .2-1.5.2-.8 0-1.6-.2-2.3-.6-2.1-1.2-2.8-4-1.6-6.3.4-.7 1-1.3 1.7-1.7.7-.4 1.5-.6 2.3-.6 1.1 0 2.1.4 2.9 1.1l2-1.9C11 .7 9.2 0 7.4 0c-1 0-2 .2-2.9.6-1.8.7-3.2 2.1-3.9 3.9-.8 1.8-.8 3.9 0 5.7.7 1.8 2.1 3.2 3.9 3.9.9.4 1.9.6 2.9.6 1.3 0 2.6-.3 3.7-.9 1.1-.6 1.9-1.5 2.5-2.5.6-1.1.9-2.4.9-3.7-.1-.5-.1-.9-.2-1.3zm6.7 0V4.2h-2.1v2.1h-2.1v2.1h2.1v2.1H21V8.4h2.1V6.3H21z"/></svg>