<svg xmlns="http://www.w3.org/2000/svg" viewBox="0 0 11.2 12"><path fill="#252525" d="M.9 9.2h1.9v1.9H.9V9.2zm2.3 0h2.1v1.9H3.2V9.2zM.9 6.6h1.9v2.1H.9V6.6zm2.3 0h2.1v2.1H3.2V6.6zM.9 4.3h1.9v1.9H.9V4.3zm4.9 4.9h2.1v1.9H5.8V9.2zM3.2 4.3h2.1v1.9H3.2V4.3zm5.2 4.9h1.9v1.9H8.4V9.2zM5.8 6.6h2.1v2.1H5.8V6.6zM3.4 3.1s-.1.1-.2.1h-.4c-.1 0-.1 0-.2-.1L2.5 3V1.1c0-.1 0-.1.1-.2 0 0 .1-.1.2-.1h.4c.1 0 .1 0 .2.1 0 0 .1.1.1.2V3c-.1 0-.1.1-.1.1zm5 3.5h1.9v2.1H8.4V6.6zM5.8 4.3h2.1v1.9H5.8V4.3zm2.6 0h1.9v1.9H8.4V4.3zm.1-1.2s-.1.1-.2.1h-.4c-.1 0-.1 0-.2-.1L7.6 3V1.1c0-.1 0-.1.1-.2 0 0 .1-.1.2-.1h.4c.1 0 .1 0 .2.1 0 0 .1.1.1.2V3l-.1.1zM10.9 2c-.2-.2-.4-.3-.6-.3h-.9v-.6C9.4.5 9 0 8.4 0h-.5c-.6 0-1 .5-1 1.1v.6H4.3v-.6C4.3.5 3.8 0 3.2 0h-.4c-.6 0-1.1.5-1.1 1.1v.6H.9c-.3 0-.5.1-.6.3-.2.1-.3.3-.3.6v8.6c0 .4.4.8.9.8h9.4c.5 0 .9-.4.9-.9V2.6c0-.3-.1-.5-.3-.6z"/></svg>