<svg xmlns="http://www.w3.org/2000/svg" viewBox="0 0 20.6 12.9"><path fill="#0065F8" d="M18.6 2.1h-5.1V.9h5.1v1.2zm-.6 5h-4.1c0-1.1.9-2 2-2h.1c1-.1 1.9.7 2 1.7v.3zm-3.5 3.3c-.4-.5-.6-1.1-.6-1.7h6.6v-.5c0-.9-.2-1.7-.5-2.5-.7-1.5-2.3-2.5-4-2.5-1.3 0-2.5.5-3.4 1.4-1.7 2-1.8 4.9 0 7 .9.9 2.1 1.4 3.4 1.3 2 .1 3.8-1.2 4.3-3.1h-2.2c-.1.4-.4.7-.8.9-.3.2-.7.3-1.1.3-.6.1-1.2-.2-1.7-.6zM2.8 7h3c1.3 0 2 .6 2 1.8 0 1.1-.7 1.7-2.1 1.7h-3L2.8 7zm0-4.8h2.6c1.3 0 1.9.5 1.9 1.5 0 .4-.1.9-.5 1.1-.3.2-.8.3-1.2.3H2.8V2.2zM0 12.7h6.1c.5 0 .9 0 1.3-.1s.8-.2 1.2-.4c.4-.2.7-.4 1-.7.3-.3.5-.7.7-1 .2-.4.3-.9.2-1.4 0-.7-.2-1.4-.6-2-.4-.6-1-1-1.7-1.1C9.4 5.4 10 4.3 10 3.1c0-.5-.1-1.1-.3-1.5-.2-.4-.5-.7-.9-1C8.4.4 8 .2 7.5.1 7 0 6.5 0 6 0H0v12.7z"/></svg>