<svg xmlns="http://www.w3.org/2000/svg" viewBox="0 0 15.4 15.4"><path fill="#FFF" d="M7.7 10.3c-1.4 0-2.6-1.2-2.6-2.6 0-1.4 1.2-2.6 2.6-2.6 1.4 0 2.6 1.2 2.6 2.6 0 .7-.3 1.3-.8 1.8-.4.5-1.1.8-1.8.8zm0-6.5c-2.2 0-4 1.8-3.9 4 0 2.2 1.8 4 4 3.9 2.2 0 4-1.8 3.9-4 0-1-.4-2-1.2-2.8-.7-.7-1.7-1.2-2.8-1.1zm4.1-1.1c-.5 0-.9.4-.9.9 0 .2.1.5.3.7.4.4.9.4 1.3 0 .2-.2.3-.4.3-.7 0-.5-.5-.9-1-.9zM9.5 1.4h1c.3 0 .7 0 1 .1.2 0 .5.1.7.2.3.1.6.3.9.6.3.3.5.5.6.9.1.2.1.5.2.7.1.3.1.7.1 1V10.7c0 .3 0 .7-.1 1 0 .2-.1.5-.2.7-.1.3-.3.6-.6.9l-.9.6c-.2.1-.5.1-.7.2-.3.1-.7.1-1 .1H4.8c-.3 0-.7 0-1-.1-.2 0-.5-.1-.7-.2-.3-.1-.6-.3-.9-.6-.3-.3-.5-.6-.6-.9-.1-.2-.1-.5-.2-.7-.1-.3-.1-.7-.1-1v-1-1.1-.8V7 5.9v-1c0-.3 0-.7.1-1 0-.2.1-.5.2-.7.2-.4.4-.7.7-.9.2-.3.5-.5.9-.6.2-.1.5-.1.7-.2.3-.1.7-.1 1-.1h4.6zm5.9 3.1c.1-2.4-1.7-4.4-4-4.5H4.5C2.2-.1.2 1.7 0 4.1V10.9c-.1 2.4 1.7 4.4 4.1 4.5H10.9c2.4.1 4.4-1.7 4.5-4.1v-.4-3.2-3.2z"/></svg>