<svg xmlns="http://www.w3.org/2000/svg" viewBox="0 0 16.7 16.7"><path fill="#31353D" d="M10.2 6.5c-.1-.1-.1-.1-.2-.1H7.7V4.2c0-.1 0-.2-.1-.2 0-.1-.1-.1-.2-.1h-.6c-.1 0-.2 0-.2.1-.1 0-.2.1-.2.2v2.3H4.2c-.1-.1-.2 0-.2 0-.1.1-.1.2-.1.3v.6c0 .1 0 .2.1.2 0 .1.1.1.2.1h2.2V10c0 .1 0 .2.1.2.1.1.1.1.2.1h.6c.1 0 .2 0 .2-.1.2-.1.2-.2.2-.2V7.7H10c.1 0 .2 0 .2-.1.1-.1.1-.1.1-.2v-.6c0-.1 0-.2-.1-.3zm-3.1 5.1c-2.5 0-4.5-2-4.5-4.5s2-4.5 4.5-4.5 4.5 2 4.5 4.5c0 1.2-.5 2.3-1.3 3.2-.9.8-2 1.3-3.2 1.3zm9.2 2.9l-3.4-3.4c.8-1.2 1.3-2.6 1.2-4 0-.9-.2-1.9-.6-2.8-.4-.8-.9-1.6-1.5-2.3-.7-.6-1.4-1.2-2.3-1.5C7.9-.2 6-.2 4.2.5c-.7.4-1.5.9-2.1 1.6C1.4 2.7.9 3.5.6 4.3-.1 6.1-.1 8 .6 9.8c.4.8.9 1.6 1.5 2.3.6.6 1.4 1.2 2.3 1.5.9.4 1.8.6 2.7.6 1.4 0 2.8-.4 4-1.3l3.4 3.4c.5.5 1.3.5 1.8 0 .2-.2.4-.6.4-.9 0-.3-.1-.6-.4-.9z"/></svg>