<svg xmlns="http://www.w3.org/2000/svg" viewBox="0 0 32.1 19.3"><path fill="#252525" d="M21.3 18.4l-2.7-3.2c-.1-.1-.3-.2-.4-.2H8.6V8.6h3.2c.3 0 .6-.1.8-.3.4-.4.4-1 .1-1.4L7.2.4C6.8-.1 6.1-.1 5.7.3l-.1.1L.3 6.8c-.2.2-.3.4-.3.7 0 .6.5 1.1 1.1 1.1h3.2v10.2c0 .1 0 .1.1.2l.1.1c0 .1.1.1.2.1H21c.1 0 .3-.1.4-.2.1-.1.2-.2.2-.4-.2 0-.2-.1-.3-.2zM31.8 11c-.2-.2-.5-.3-.8-.3h-3.2V.7.5.3s0-.1-.1-.1c0-.1-.1-.1-.2-.1H11.3c-.1 0-.3.1-.4.2-.1.1-.2.2-.2.4 0 .1 0 .2.1.3l2.7 3.2c.1.1.3.2.4.2h9.6v6.4h-3.2c-.3 0-.6.1-.8.3-.2.2-.3.5-.3.8 0 .3.1.5.3.7l5.3 6.4c.2.2.5.4.8.4.3 0 .6-.1.8-.4l5.4-6.4c.2-.2.3-.4.3-.7 0-.4-.1-.7-.3-.9z"/></svg>