<svg xmlns="http://www.w3.org/2000/svg" viewBox="0 0 63 11"><path fill="#eecf00" d="M11 4.2c0-.2-.2-.3-.4-.3l-3.3-.5L5.8.3c0-.2-.2-.3-.3-.3s-.3.1-.3.3L3.7 3.4l-3.3.5c-.2 0-.4.1-.4.3 0 .1.1.3.2.3L2.6 7 2 10.4v.1c0 .2.1.3.3.3.1 0 .2 0 .3-.1l3-1.7 2.8 1.9c.2.1.2.1.3.1.2 0 .3-.1.3-.3v-.1L8.5 7l2.4-2.5s.1-.1.1-.3zM24 4.2c0-.2-.2-.3-.4-.3l-3.3-.5L18.8.3c0-.2-.2-.3-.4-.3s-.3.1-.3.3l-1.5 3.1-3.3.5c-.1 0-.3.1-.3.3 0 .1.1.3.2.3L15.6 7l-.6 3.4v.1c0 .2.1.3.3.3.1 0 .2 0 .3-.1l3-1.7 2.8 1.9c.1.1.2.1.3.1.2 0 .3-.1.3-.3v-.1L21.5 7l2.4-2.5s.1-.1.1-.3zM37 4.2c0-.2-.2-.3-.4-.3l-3.3-.5L31.8.3c0-.2-.2-.3-.4-.3s-.3.1-.3.3l-1.5 3.1-3.3.5c-.1 0-.3.1-.3.3 0 .1.1.3.2.3L28.6 7l-.6 3.4v.1c0 .2.1.3.3.3.1 0 .2 0 .3-.1l3-1.7 2.8 1.9c.1.1.2.1.3.1.2 0 .3-.1.3-.3v-.1L34.5 7l2.4-2.5s.1-.1.1-.3zM50 4.2c0-.2-.2-.3-.4-.3l-3.3-.5L44.8.3c0-.2-.2-.3-.4-.3s-.3.1-.3.3l-1.5 3.1-3.3.5c-.1 0-.3.1-.3.3 0 .1.1.3.2.3L41.6 7l-.6 3.4v.1c0 .2.1.3.3.3.1 0 .2 0 .3-.1l3-1.7 2.8 1.9c.1.1.2.1.3.1.2 0 .3-.1.3-.3v-.1L47.5 7l2.4-2.5s.1-.1.1-.3zM63 4.2c0-.2-.2-.3-.4-.3l-3.3-.5L57.8.3c0-.2-.2-.3-.4-.3s-.3.1-.3.3l-1.5 3.1-3.3.5c-.1 0-.3.1-.3.3 0 .1.1.3.2.3L54.6 7l-.6 3.4v.1c0 .2.1.3.3.3.1 0 .2 0 .3-.1l3-1.7 2.8 1.9c.1.1.2.1.3.1.2 0 .3-.1.3-.3v-.1L60.5 7l2.4-2.5s.1-.1.1-.3z"/></svg>