<svg xmlns="http://www.w3.org/2000/svg" viewBox="0 0 18 12.9"><path fill="#FFF" d="M12.6 7l-5.1 3.2c-.1.1-.2.1-.3.1-.1 0-.2 0-.3-.1-.2-.1-.3-.3-.3-.6V3.2c0-.4.3-.6.6-.6.1 0 .2 0 .4.1l5.1 3.2c.3.2.4.6.2.9-.2 0-.3.1-.3.2zm5.3-3.5c0-.5-.1-1-.2-1.5s-.3-.9-.7-1.2c-.3-.3-.8-.5-1.3-.6C14.3.1 12 0 9 0S3.7.1 2.3.3c-.5 0-.9.2-1.3.5-.3.4-.6.8-.7 1.3-.1.5-.2 1-.2 1.5-.1.5-.1 1-.1 1.3v3c0 .4 0 .8.1 1.4 0 .5.1 1 .2 1.5s.4.9.7 1.2c.3.3.8.5 1.3.6 4.5.3 9 .3 13.5 0 .5 0 .9-.3 1.2-.6.4-.3.6-.8.7-1.2.1-.5.2-1 .2-1.5s.1-1 .1-1.4V6.4 4.9c0-.4 0-.8-.1-1.4z"/></svg>