<svg xmlns="http://www.w3.org/2000/svg" viewBox="0 0 12 10.3"><path fill="#252525" d="M3.4 3.4c-.2 0-.4.1-.6.3-.3.3-.3.8 0 1.2.3.3.9.3 1.2 0 .4-.4.4-.9 0-1.2-.1-.2-.3-.3-.6-.3zm2.6 0c-.2 0-.4.1-.6.3-.3.3-.3.8 0 1.2.3.3.9.3 1.2 0 .3-.3.3-.9 0-1.2-.2-.2-.4-.3-.6-.3zm2.6 0c-.3 0-.5.1-.6.3-.4.3-.4.8 0 1.2.3.3.9.3 1.2 0 .3-.3.3-.9 0-1.2-.2-.2-.4-.3-.6-.3zm1.8-.8c.9.9.9 2.5 0 3.4-.5.5-1.1 1-1.8 1.2-.9.4-1.7.5-2.6.5H4.7l-.2.2c-.6.4-1.2.8-1.9 1.1.2-.4.4-.7.5-1.1l.2-.6-.6-.4c-.5-.3-1-.7-1.3-1.2C1 5.3.9 4.8.9 4.3c0-.6.3-1.2.7-1.7.5-.6 1.2-1 1.9-1.3C5.1.7 7 .7 8.6 1.3c.7.3 1.3.7 1.8 1.3zm1.1 0c-.3-.5-.8-1-1.3-1.4C9.7.8 9 .5 8.3.3 6.8-.2 5.2-.2 3.6.3c-.6.2-1.3.5-1.8.9S.8 2 .5 2.6C.2 3.1 0 3.7 0 4.3c0 .7.2 1.3.6 1.9.4.6 1 1.1 1.7 1.5 0 .2-.1.3-.2.5-.1.1-.1.2-.2.3-.1.2-.1.3-.2.4-.1.1-.1.2-.2.2 0 0-.1.1-.2.3s-.2.2-.3.2v.6c0 .1.1.1.1.2 0 0 .1.1.2.1.3 0 .5-.1.8-.1 1-.6 2-1.1 2.9-1.9h1c1 0 2.1-.2 3-.6.8-.3 1.6-.9 2.2-1.6.5-.5.8-1.2.8-2 0-.6-.2-1.2-.5-1.7z"/></svg>