<svg xmlns="http://www.w3.org/2000/svg" viewBox="0 0 28.9 23.5"><path fill="#252525" d="M7.5 21.4c-1.2 0-2.2-.9-2.2-2.1 0-1.2.9-2.2 2.1-2.2 1.2 0 2.2.9 2.2 2.1 0 .6-.2 1.2-.6 1.6-.4.4-.9.6-1.5.6zM3.2 10.2c0-.1.1-.3.1-.4l3.3-3.3c.1 0 .3-.1.4-.1h2.6v4.3H3.2v-.5zm19.3 11.2c-1.2 0-2.2-.9-2.2-2.1 0-1.2.9-2.2 2.1-2.2 1.2 0 2.2.9 2.2 2.1 0 .6-.2 1.2-.6 1.6-.4.4-.9.6-1.5.6zM28.6.3c-.2-.2-.5-.3-.7-.3H10.7c-.6 0-1.1.5-1.1 1.1v3.2H7c-.7 0-1.4.3-1.9.7L1.8 8.4c-.1.1-.2.3-.4.5 0 .1-.1.3-.2.5 0 .2-.1.4-.1.6v7.2c-.6 0-1.1.5-1.1 1.1 0 .2 0 .3.1.4 0 .1.1.2.2.3.1.1.2.1.3.2.1.1.3.1.4.1H3.3c0 2.4 2 4.3 4.4 4.2 2.3 0 4.2-1.9 4.2-4.2h6.4c0 2.4 2 4.3 4.4 4.2 2.3 0 4.2-1.9 4.2-4.2H28.1c.1 0 .3 0 .4-.1.1 0 .2-.1.3-.2.1-.1.2-.2.2-.3 0-.1.1-.3.1-.4V1.1c-.2-.3-.3-.6-.5-.8z"/></svg>