<svg xmlns="http://www.w3.org/2000/svg" viewBox="0 0 92 24.6"><g fill="#252525"><path d="M0 24V6h4v1.6c.3-.7 1-1.2 1.9-1.6.9-.4 1.8-.5 2.8-.5 1 0 1.9.2 2.7.6.9.3 1.6.9 2.1 1.6.1 0 .2.1.2.3.1.1.2.2.2.3.2-.3.3-.5.5-.6.6-.7 1.4-1.3 2.3-1.6s1.9-.6 2.9-.6c1.1 0 2.1.2 3 .5.9.3 1.7.9 2.4 1.7.7.8 1.2 1.8 1.5 2.9.2.9.3 2 .3 3.3V24h-4.4V14c0-.6 0-1.2-.1-1.7s-.3-1-.5-1.3c-.2-.4-.6-.7-1.1-1-.5-.2-1-.3-1.5-.3-1.3 0-2.3.5-3 1.5-.3.5-.5 1-.6 1.6-.1.6-.2 1.3-.2 2.1V24h-4.3V14c0-.6 0-1.2-.1-1.6-.1-.4-.3-.9-.6-1.3s-.7-.8-1.2-1-1-.4-1.6-.4c-1.5 0-2.5.6-3 1.9-.3.8-.5 2.1-.5 3.9V24H0zM39.5 11h-4.2c-.1-.4-.3-.8-.6-1-.3-.2-.7-.3-1.1-.3-.5 0-.9.1-1.2.4-.3.3-.5.6-.5 1.1 0 .5.3.9.9 1.2.3.1.8.3 1.6.5 2.4.7 3.9 1.5 4.6 2.3s1 1.9 1 3.1c0 1.8-.6 3.2-1.8 4.3-1.3 1.2-2.9 1.9-4.7 1.9-1.8 0-3.4-.6-4.6-1.7-1.2-1.2-1.9-2.7-1.9-4.5h4.4c.1.6.3 1.1.7 1.5s.9.6 1.5.6c.5 0 1-.1 1.4-.4.4-.3.6-.7.6-1.3 0-.6-.4-1.1-1.1-1.5-.3-.2-1-.4-1.9-.8-.8-.2-1.4-.4-1.7-.6-.5-.2-1-.5-1.5-1-1.2-1-1.8-2.2-1.8-3.7 0-1.6.6-2.9 1.8-3.9 1.2-1 2.6-1.5 4.3-1.5 1.5 0 2.9.5 4 1.6s1.8 2.2 1.8 3.7z"/><path d="M40.7 24V9.9h-2.1V6h2.1V0h4.4v6h2.6v3.8h-2.6V24h-4.4z"/><path d="M56.1 5.5c2.6 0 4.8.9 6.7 2.8s2.8 4.1 2.8 6.8-.9 4.9-2.8 6.7c-1.9 1.8-4.1 2.8-6.8 2.8-2.6 0-4.8-.9-6.7-2.8-1.9-1.9-2.8-4.1-2.8-6.7 0-2.7.9-4.9 2.8-6.8s4.1-2.8 6.8-2.8zm-.2 4.2c-.7 0-1.3.1-2 .4-.7.3-1.2.7-1.7 1.2s-.9 1.1-1.1 1.7c-.2.6-.4 1.3-.4 2 0 1.5.5 2.7 1.5 3.7s2.2 1.6 3.7 1.6 2.8-.5 3.8-1.5 1.5-2.3 1.5-3.8-.5-2.8-1.5-3.8c-1.1-1-2.3-1.5-3.8-1.5z"/><path d="M65.5 24V6h4v1.6c.5-.8 1-1.3 1.7-1.6s1.4-.5 2.2-.5h.3v4.1c-1 0-1.8.3-2.6.8-.5.4-.8.9-1 1.4-.2.5-.3 1.1-.3 1.8V24h-4.3z"/><path d="M91 17H77.1c.3 1 .9 1.8 1.8 2.5.9.6 1.8.9 2.9.9.8 0 1.6-.1 2.3-.4.7-.3 1.3-.6 1.7-1.1h4.8c-.6 1.6-1.7 3-3.3 4.1-1.7 1.1-3.4 1.7-5.3 1.7-2.6 0-4.8-.9-6.7-2.7s-2.8-4.1-2.8-6.7c0-2.7.9-4.9 2.8-6.8s4.1-2.8 6.8-2.8c2.5 0 4.7.9 6.5 2.8s2.7 4 2.7 6.6c0 .3 0 .7-.1 1-.1.2-.1.5-.2.9zm-14-3.9h9.9c-.4-1-1-1.9-1.9-2.5-.9-.6-1.9-.9-3-.9s-2.1.3-3.1.9c-.9.7-1.5 1.5-1.9 2.5z"/></g><circle fill="#00c8c8" cx="88.5" cy="21.1" r="3.5"/></svg>