<svg version="1.1" id="icon-return" xmlns="http://www.w3.org/2000/svg" xmlns:xlink="http://www.w3.org/1999/xlink" x="0px" y="0px" viewBox="0 0 32.1 19.3" enable-background="new 0 0 32.1 19.3" xml:space="preserve">
<path fill="#252525" d="M21.3,18.4l-2.7-3.2c-0.1-0.1-0.3-0.2-0.4-0.2H8.6V8.6h3.2c0.3,0,0.6-0.1,0.8-0.3c0.4-0.4,0.4-1,0.1-1.4
  L7.2,0.4C6.8-0.1,6.1-0.1,5.7,0.3c0,0-0.1,0.1-0.1,0.1L0.3,6.8C0.1,7,0,7.2,0,7.5c0,0.6,0.5,1.1,1.1,1.1h3.2v10c0,0,0,0.1,0,0.2
  c0,0.1,0,0.1,0.1,0.2c0,0,0.1,0.1,0.1,0.1c0,0.1,0.1,0.1,0.2,0.1c0.1,0,0.1,0,0.2,0h16.1c0.1,0,0.3-0.1,0.4-0.2
  c0.1-0.1,0.2-0.2,0.2-0.4C21.4,18.6,21.4,18.5,21.3,18.4L21.3,18.4z M31.8,11c-0.2-0.2-0.5-0.3-0.8-0.3h-3.2v-10c0,0,0-0.1,0-0.2
  c0-0.1,0-0.1,0-0.2c0,0,0-0.1-0.1-0.1c0-0.1-0.1-0.1-0.2-0.1c-0.1,0-0.2,0-0.2,0H11.3c-0.1,0-0.3,0.1-0.4,0.2
  c-0.1,0.1-0.2,0.2-0.2,0.4c0,0.1,0,0.2,0.1,0.3l2.7,3.2c0.1,0.1,0.3,0.2,0.4,0.2h9.6v6.4h-3.2c-0.3,0-0.6,0.1-0.8,0.3
  c-0.2,0.2-0.3,0.5-0.3,0.8c0,0.3,0.1,0.5,0.3,0.7l5.3,6.4c0.2,0.2,0.5,0.4,0.8,0.4c0.3,0,0.6-0.1,0.8-0.4l5.4-6.4
  c0.2-0.2,0.3-0.4,0.3-0.7C32.1,11.5,32,11.2,31.8,11z"/>
</svg>
