<svg version="1.1" id="icon-calendar" xmlns="http://www.w3.org/2000/svg" xmlns:xlink="http://www.w3.org/1999/xlink" x="0px" y="0px" viewBox="0 0 11.2 12" enable-background="new 0 0 11.2 12" xml:space="preserve">
<path fill="#252525" d="M0.9,9.2h1.9v1.9H0.9V9.2z M3.2,9.2h2.1v1.9H3.2V9.2z M0.9,6.6h1.9v2.1H0.9V6.6z M3.2,6.6h2.1v2.1H3.2V6.6z
    M0.9,4.3h1.9v1.9H0.9V4.3L0.9,4.3z M5.8,9.2h2.1v1.9H5.8V9.2z M3.2,4.3h2.1v1.9H3.2V4.3L3.2,4.3z M8.4,9.2h1.9v1.9H8.4V9.2z
    M5.8,6.6h2.1v2.1H5.8V6.6z M3.4,3.1c0,0-0.1,0.1-0.2,0.1H2.8c-0.1,0-0.1,0-0.2-0.1c0,0-0.1-0.1-0.1-0.1V1.1c0-0.1,0-0.1,0.1-0.2
  c0,0,0.1-0.1,0.2-0.1h0.4c0.1,0,0.1,0,0.2,0.1c0,0,0.1,0.1,0.1,0.2V3C3.4,3,3.4,3.1,3.4,3.1L3.4,3.1z M8.4,6.6h1.9v2.1H8.4V6.6z
    M5.8,4.3h2.1v1.9H5.8V4.3L5.8,4.3z M8.4,4.3h1.9v1.9H8.4V4.3L8.4,4.3z M8.5,3.1c0,0-0.1,0.1-0.2,0.1H7.9c-0.1,0-0.1,0-0.2-0.1
  c0,0-0.1-0.1-0.1-0.1V1.1c0-0.1,0-0.1,0.1-0.2c0,0,0.1-0.1,0.2-0.1h0.4c0.1,0,0.1,0,0.2,0.1c0,0,0.1,0.1,0.1,0.2V3
  C8.6,3,8.5,3.1,8.5,3.1L8.5,3.1z M10.9,2c-0.2-0.2-0.4-0.3-0.6-0.3H9.4V1.1C9.4,0.5,9,0,8.4,0H7.9C7.3,0,6.9,0.5,6.9,1.1v0.6H4.3
  V1.1C4.3,0.5,3.8,0,3.2,0H2.8C2.2,0,1.7,0.5,1.7,1.1v0.6H0.9C0.6,1.7,0.4,1.8,0.3,2C0.1,2.1,0,2.3,0,2.6v8.6C0,11.6,0.4,12,0.9,12
  h9.4c0.5,0,0.9-0.4,0.9-0.9V2.6C11.2,2.3,11.1,2.1,10.9,2L10.9,2z"/>
</svg>
