<svg version="1.1" id="zoom" xmlns="http://www.w3.org/2000/svg" xmlns:xlink="http://www.w3.org/1999/xlink" x="0px" y="0px" viewBox="0 0 16.7 16.7" enable-background="new 0 0 16.7 16.7" xml:space="preserve">
<path fill="#31353D" d="M10.2,6.5c-0.1-0.1-0.1-0.1-0.2-0.1H7.7V4.2c0-0.1,0-0.2-0.1-0.2C7.6,3.9,7.5,3.9,7.4,3.9H6.8
  c-0.1,0-0.2,0-0.2,0.1C6.5,4,6.4,4.1,6.4,4.2v2.3H4.2C4.1,6.4,4,6.5,4,6.5C3.9,6.6,3.9,6.7,3.9,6.8v0.6c0,0.1,0,0.2,0.1,0.2
  C4,7.7,4.1,7.7,4.2,7.7h2.2V10c0,0.1,0,0.2,0.1,0.2c0.1,0.1,0.1,0.1,0.2,0.1h0.6c0.1,0,0.2,0,0.2-0.1C7.7,10.1,7.7,10,7.7,10V7.7H10
  c0.1,0,0.2,0,0.2-0.1c0.1-0.1,0.1-0.1,0.1-0.2V6.8C10.3,6.7,10.3,6.6,10.2,6.5z M7.1,11.6c-2.5,0-4.5-2-4.5-4.5c0-2.5,2-4.5,4.5-4.5
  s4.5,2,4.5,4.5c0,1.2-0.5,2.3-1.3,3.2C9.4,11.1,8.3,11.6,7.1,11.6z M16.3,14.5l-3.4-3.4c0.8-1.2,1.3-2.6,1.2-4
  c0-0.9-0.2-1.9-0.6-2.8c-0.4-0.8-0.9-1.6-1.5-2.3c-0.7-0.6-1.4-1.2-2.3-1.5c-1.8-0.7-3.7-0.7-5.5,0C3.5,0.9,2.7,1.4,2.1,2.1
  C1.4,2.7,0.9,3.5,0.6,4.3c-0.7,1.8-0.7,3.7,0,5.5c0.4,0.8,0.9,1.6,1.5,2.3c0.6,0.6,1.4,1.2,2.3,1.5c0.9,0.4,1.8,0.6,2.7,0.6
  c1.4,0,2.8-0.4,4-1.3l3.4,3.4c0.5,0.5,1.3,0.5,1.8,0c0,0,0,0,0,0c0.2-0.2,0.4-0.6,0.4-0.9C16.7,15.1,16.6,14.8,16.3,14.5L16.3,14.5
  L16.3,14.5z"/>
</svg>
