<svg version="1.1" id="icon-shipping" xmlns="http://www.w3.org/2000/svg" xmlns:xlink="http://www.w3.org/1999/xlink" x="0px" y="0px" viewBox="0 0 28.9 23.5" enable-background="new 0 0 28.9 23.5" xml:space="preserve">
<path fill="#252525" d="M7.5,21.4c-1.2,0-2.2-0.9-2.2-2.1c0-1.2,0.9-2.2,2.1-2.2c1.2,0,2.2,0.9,2.2,2.1c0,0.6-0.2,1.2-0.6,1.6
  C8.6,21.2,8.1,21.4,7.5,21.4z M3.2,10.2c0-0.1,0.1-0.3,0.1-0.4l3.3-3.3C6.7,6.5,6.9,6.4,7,6.4h2.6v4.3H3.2V10.2L3.2,10.2z
  M22.5,21.4c-1.2,0-2.2-0.9-2.2-2.1c0-1.2,0.9-2.2,2.1-2.2c1.2,0,2.2,0.9,2.2,2.1c0,0.6-0.2,1.2-0.6,1.6
  C23.6,21.2,23.1,21.4,22.5,21.4z M28.6,0.3C28.4,0.1,28.1,0,27.9,0H10.7c-0.6,0-1.1,0.5-1.1,1.1v3.2H7C6.3,4.3,5.6,4.6,5.1,5
  L1.8,8.4C1.7,8.5,1.6,8.7,1.4,8.9C1.4,9,1.3,9.2,1.2,9.4C1.2,9.6,1.1,9.8,1.1,10c0,0.3,0,0.5,0,0.6s0,0.3,0,0.6s0,0.5,0,0.6v5.4
  c-0.6,0-1.1,0.5-1.1,1.1c0,0.2,0,0.3,0.1,0.4c0,0.1,0.1,0.2,0.2,0.3c0.1,0.1,0.2,0.1,0.3,0.2c0.1,0.1,0.3,0.1,0.4,0.1l0.4,0
  c0.1,0,0.2,0,0.4,0l0.4,0h1.1c0,2.4,2,4.3,4.4,4.2c2.3,0,4.2-1.9,4.2-4.2h6.4c0,2.4,2,4.3,4.4,4.2c2.3,0,4.2-1.9,4.2-4.2l0.4,0
  c0.2,0,0.4,0,0.4,0l0.4,0c0.1,0,0.3,0,0.4-0.1c0.1,0,0.2-0.1,0.3-0.2c0.1-0.1,0.2-0.2,0.2-0.3c0-0.1,0.1-0.3,0.1-0.4V1.1
  C28.9,0.8,28.8,0.5,28.6,0.3z"/>
</svg>
