<svg version="1.1" id="wishlist" xmlns="http://www.w3.org/2000/svg" xmlns:xlink="http://www.w3.org/1999/xlink" x="0px" y="0px" viewBox="0 0 16 13.7" enable-background="new 0 0 16 13.7" xml:space="preserve">
<path fill="#464646" d="M14.9,4.2c-0.2,1.2-0.8,2.3-1.7,3.2l-5.2,5l-5.2-5C1.9,6.5,1.3,5.4,1.1,4.2c0-2.5,1.7-3,3.1-3
  c1.3,0,2.8,1.4,3.3,2c0.2,0.2,0.6,0.3,0.8,0c0,0,0,0,0,0c0.5-0.6,2-2,3.3-2C13.2,1.1,14.9,1.7,14.9,4.2z M16,4.2
  C16,1.6,14.4,0,11.7,0C10.3,0.2,9,0.9,8,1.9C7,0.9,5.7,0.2,4.3,0C1.6,0,0,1.6,0,4.2c0.2,1.5,0.9,3,2,4l5.6,5.4
  c0.2,0.2,0.6,0.2,0.8,0L14,8.2C14,8.1,16,6.3,16,4.2L16,4.2z"/>
</svg>
