<svg version="1.1" id="icon-google-plus" xmlns="http://www.w3.org/2000/svg" xmlns:xlink="http://www.w3.org/1999/xlink" x="0px" y="0px" viewBox="0 0 23.1 14.7" enable-background="new 0 0 23.1 14.7" xml:space="preserve">
<path fill="#FFFFFF" d="M14.3,6.3h-7v2.5h4.2c0,0.3-0.1,0.5-0.2,0.7c-0.1,0.3-0.3,0.6-0.5,0.8c-0.2,0.3-0.5,0.6-0.8,0.8
  c-0.3,0.3-0.7,0.5-1.2,0.6c-0.5,0.2-1,0.2-1.5,0.2c-0.8,0-1.6-0.2-2.3-0.6C2.9,10.1,2.2,7.3,3.4,5c0.4-0.7,1-1.3,1.7-1.7
  c0.7-0.4,1.5-0.6,2.3-0.6c1.1,0,2.1,0.4,2.9,1.1l2-1.9C11,0.7,9.2,0,7.4,0c-1,0-2,0.2-2.9,0.6C2.7,1.3,1.3,2.7,0.6,4.5
  c-0.8,1.8-0.8,3.9,0,5.7c0.7,1.8,2.1,3.2,3.9,3.9c0.9,0.4,1.9,0.6,2.9,0.6c1.3,0,2.6-0.3,3.7-0.9c1.1-0.6,1.9-1.5,2.5-2.5
  c0.6-1.1,0.9-2.4,0.9-3.7C14.4,7.1,14.4,6.7,14.3,6.3L14.3,6.3L14.3,6.3z M21,6.3V4.2h-2.1v2.1h-2.1v2.1h2.1v2.1H21V8.4h2.1V6.3H21z
  "/>
</svg>
