<svg version="1.1" id="icon-behance" xmlns="http://www.w3.org/2000/svg" xmlns:xlink="http://www.w3.org/1999/xlink" x="0px" y="0px" viewBox="0 0 20.6 12.9" enable-background="new 0 0 20.6 12.9" xml:space="preserve">
<path fill="#0065F8" d="M18.6,2.1h-5.1V0.9h5.1V2.1z M18,7.1h-4.1c0-1.1,0.9-2,2-2c0,0,0.1,0,0.1,0c1-0.1,1.9,0.7,2,1.7
  C18,6.9,18,7,18,7.1L18,7.1L18,7.1z M14.5,10.4c-0.4-0.5-0.6-1.1-0.6-1.7h6.6c0-0.2,0-0.4,0-0.5c0-0.9-0.2-1.7-0.5-2.5
  c-0.7-1.5-2.3-2.5-4-2.5c-1.3,0-2.5,0.5-3.4,1.4c-1.7,2-1.8,4.9,0,7c0.9,0.9,2.1,1.4,3.4,1.3c2,0.1,3.8-1.2,4.3-3.1h-2.2
  c-0.1,0.4-0.4,0.7-0.8,0.9C17,10.9,16.6,11,16.2,11C15.6,11.1,15,10.8,14.5,10.4L14.5,10.4z M2.8,7h3c1.3,0,2,0.6,2,1.8
  c0,1.1-0.7,1.7-2.1,1.7h-3L2.8,7L2.8,7z M2.8,2.2h2.6c1.3,0,1.9,0.5,1.9,1.5c0,0.4-0.1,0.9-0.5,1.1C6.5,5,6,5.1,5.6,5.1H2.8L2.8,2.2
  L2.8,2.2z M0,12.7h6.1c0.5,0,0.9,0,1.3-0.1c0.4-0.1,0.8-0.2,1.2-0.4c0.4-0.2,0.7-0.4,1-0.7c0.3-0.3,0.5-0.7,0.7-1
  c0.2-0.4,0.3-0.9,0.2-1.4c0-0.7-0.2-1.4-0.6-2c-0.4-0.6-1-1-1.7-1.1C9.4,5.4,10,4.3,10,3.1c0-0.5-0.1-1.1-0.3-1.5
  c-0.2-0.4-0.5-0.7-0.9-1C8.4,0.4,8,0.2,7.5,0.1C7,0,6.5,0,6,0H0V12.7z"/>
</svg>
