<svg version="1.1" id="icon-youtube" xmlns="http://www.w3.org/2000/svg" xmlns:xlink="http://www.w3.org/1999/xlink" x="0px" y="0px" viewBox="0 0 18 12.9" enable-background="new 0 0 18 12.9" xml:space="preserve">
<path fill="#FFFFFF" d="M12.6,7l-5.1,3.2c-0.1,0.1-0.2,0.1-0.3,0.1c-0.1,0-0.2,0-0.3-0.1c-0.2-0.1-0.3-0.3-0.3-0.6V3.2
  c0-0.4,0.3-0.6,0.6-0.6c0.1,0,0.2,0,0.4,0.1l5.1,3.2c0.3,0.2,0.4,0.6,0.2,0.9C12.7,6.8,12.6,6.9,12.6,7L12.6,7L12.6,7z M17.9,3.5
  c0-0.5-0.1-1-0.2-1.5c-0.1-0.5-0.3-0.9-0.7-1.2c-0.3-0.3-0.8-0.5-1.3-0.6C14.3,0.1,12,0,9,0S3.7,0.1,2.3,0.3C1.8,0.3,1.4,0.5,1,0.8
  C0.7,1.2,0.4,1.6,0.3,2.1c-0.1,0.5-0.2,1-0.2,1.5C0,4.1,0,4.6,0,4.9s0,0.9,0,1.5s0,1.1,0,1.5s0,0.8,0.1,1.4c0,0.5,0.1,1,0.2,1.5
  C0.4,11.3,0.7,11.7,1,12c0.3,0.3,0.8,0.5,1.3,0.6c4.5,0.3,9,0.3,13.5,0c0.5,0,0.9-0.3,1.2-0.6c0.4-0.3,0.6-0.8,0.7-1.2
  c0.1-0.5,0.2-1,0.2-1.5c0-0.5,0.1-1,0.1-1.4s0-0.9,0-1.5s0-1.1,0-1.5S18,4.1,17.9,3.5z"/>
</svg>
