<svg version="1.1" id="icon-instagram" xmlns="http://www.w3.org/2000/svg" xmlns:xlink="http://www.w3.org/1999/xlink" x="0px" y="0px" viewBox="0 0 15.4 15.4" enable-background="new 0 0 15.4 15.4" xml:space="preserve">
<path fill="#FFFFFF" d="M7.7,10.3c-1.4,0-2.6-1.2-2.6-2.6c0-1.4,1.2-2.6,2.6-2.6c1.4,0,2.6,1.2,2.6,2.6c0,0.7-0.3,1.3-0.8,1.8
  C9.1,10,8.4,10.3,7.7,10.3z M7.7,3.8c-2.2,0-4,1.8-3.9,4c0,2.2,1.8,4,4,3.9c2.2,0,4-1.8,3.9-4c0-1-0.4-2-1.2-2.8
  C9.8,4.2,8.8,3.7,7.7,3.8L7.7,3.8z M11.8,2.7c-0.5,0-0.9,0.4-0.9,0.9c0,0.2,0.1,0.5,0.3,0.7c0.4,0.4,0.9,0.4,1.3,0
  c0.2-0.2,0.3-0.4,0.3-0.7C12.8,3.1,12.3,2.7,11.8,2.7L11.8,2.7z M9.5,1.4c0.2,0,0.6,0,1,0c0.3,0,0.7,0,1,0.1c0.2,0,0.5,0.1,0.7,0.2
  c0.3,0.1,0.6,0.3,0.9,0.6c0.3,0.3,0.5,0.5,0.6,0.9c0.1,0.2,0.1,0.5,0.2,0.7C14,4.2,14,4.6,14,4.9c0,0.4,0,0.7,0,1s0,0.6,0,1.1
  s0,0.7,0,0.8s0,0.3,0,0.8s0,0.8,0,1.1s0,0.6,0,1c0,0.3,0,0.7-0.1,1c0,0.2-0.1,0.5-0.2,0.7c-0.1,0.3-0.3,0.6-0.6,0.9
  c-0.3,0.2-0.6,0.4-0.9,0.6c-0.2,0.1-0.5,0.1-0.7,0.2c-0.3,0.1-0.7,0.1-1,0.1c-0.4,0-0.7,0-1,0c-0.2,0-0.6,0-1.1,0H6.9
  c-0.5,0-0.8,0-1.1,0c-0.2,0-0.6,0-1,0c-0.3,0-0.7,0-1-0.1c-0.2,0-0.5-0.1-0.7-0.2c-0.3-0.1-0.6-0.3-0.9-0.6
  c-0.3-0.3-0.5-0.6-0.6-0.9c-0.1-0.2-0.1-0.5-0.2-0.7c-0.1-0.3-0.1-0.7-0.1-1c0-0.4,0-0.7,0-1s0-0.6,0-1.1s0-0.7,0-0.8s0-0.3,0-0.8
  s0-0.8,0-1.1s0-0.6,0-1c0-0.3,0-0.7,0.1-1c0-0.2,0.1-0.5,0.2-0.7C1.8,2.8,2,2.5,2.3,2.3C2.5,2,2.8,1.8,3.2,1.7
  c0.2-0.1,0.5-0.1,0.7-0.2c0.3-0.1,0.7-0.1,1-0.1c0.4,0,0.7,0,1,0c0.2,0,0.6,0,1.1,0h1.5C8.9,1.4,9.3,1.4,9.5,1.4L9.5,1.4z M15.4,4.5
  c0.1-2.4-1.7-4.4-4-4.5c-0.1,0-0.3,0-0.4,0c-0.6,0-1.6,0-3.2,0S5.1,0,4.5,0C2.2-0.1,0.2,1.7,0,4.1c0,0.1,0,0.3,0,0.4
  c0,0.6,0,1.6,0,3.2c0,1.5,0,2.6,0,3.2c-0.1,2.4,1.7,4.4,4.1,4.5c0.1,0,0.3,0,0.4,0c0.6,0,1.7,0,3.2,0s2.6,0,3.2,0
  c2.4,0.1,4.4-1.7,4.5-4.1c0-0.1,0-0.3,0-0.4c0-0.6,0-1.7,0-3.2S15.4,5.1,15.4,4.5L15.4,4.5z"/>
</svg>
