<svg version="1.1" id="icon-secure" xmlns="http://www.w3.org/2000/svg" xmlns:xlink="http://www.w3.org/1999/xlink" x="0px" y="0px" viewBox="0 0 32.1 25.7" enable-background="new 0 0 32.1 25.7" xml:space="preserve">
<path fill="#252525" d="M2.7,0C1.2,0,0,1.2,0,2.7V23c0,1.5,1.2,2.7,2.7,2.7h26.8c1.5,0,2.7-1.2,2.7-2.7c0,0,0,0,0,0
  V2.7c0-1.5-1.2-2.7-2.7-2.7c0,0,0,0,0,0H2.7z M29.5,2.1c0.1,0,0.3,0.1,0.4,0.2C29.9,2.4,30,2.5,30,2.7v3.8H2.1V2.7
  c0-0.1,0.1-0.3,0.2-0.4c0.1-0.1,0.2-0.2,0.4-0.2H29.5L29.5,2.1z M2.7,23.6c-0.1,0-0.3-0.1-0.4-0.2c-0.1-0.1-0.2-0.2-0.2-0.4V12.9H30
  V23c0,0.1-0.1,0.3-0.2,0.4c-0.1,0.1-0.2,0.2-0.4,0.2H2.7L2.7,23.6z M8.6,21.4v-2.1H4.3v2.1H8.6z M17.1,21.4v-2.1h-6.4v2.1H17.1z"/>
</svg>
