<svg version="1.1" id="profile" xmlns="http://www.w3.org/2000/svg" xmlns:xlink="http://www.w3.org/1999/xlink" x="0px" y="0px" viewBox="0 0 16 16" enable-background="new 0 0 16 16" xml:space="preserve">
<path fill="#464646" d="M8,0C3.6,0,0,3.6,0,8s3.6,8,8,8s8-3.6,8-8S12.4,0,8,0z M13.5,12.1c-0.3-1.6-1.1-2.9-2.7-2.9
  C10,9.9,9,10.3,8,10.3c-1,0-2.1-0.4-2.8-1.1c-1.6,0-2.4,1.3-2.7,2.9C0.2,9,0.9,4.7,3.9,2.5c3.1-2.2,7.3-1.6,9.6,1.5
  C15.3,6.4,15.3,9.6,13.5,12.1L13.5,12.1z M11.4,6.3c0,1.9-1.5,3.4-3.4,3.4c-1.9,0-3.4-1.5-3.4-3.4c0-1.9,1.5-3.4,3.4-3.4
  c0,0,0,0,0,0C9.9,2.9,11.4,4.4,11.4,6.3L11.4,6.3z"/>
</svg>
