<svg version="1.1" id="icon-twitter" xmlns="http://www.w3.org/2000/svg" xmlns:xlink="http://www.w3.org/1999/xlink" x="0px" y="0px" viewBox="0 0 15.8 12.9" enable-background="new 0 0 15.8 12.9" xml:space="preserve">
<path fill="#FFFFFF" d="M14,2c0.7-0.4,1.2-1,1.4-1.8c-0.6,0.4-1.3,0.7-2.1,0.8c-1.2-1.3-3.3-1.4-4.6-0.2c-0.7,0.6-1,1.5-1,2.4
  c0,0.2,0,0.5,0.1,0.7C6.5,3.9,5.2,3.6,4.1,3c-1.1-0.6-2.1-1.4-3-2.4C0.2,2.1,0.7,4,2.1,4.9c-0.5,0-1-0.2-1.5-0.4v0
  c0,0.8,0.3,1.5,0.7,2.1c0.5,0.6,1.1,1,1.9,1.1C3,7.8,2.7,7.9,2.4,7.9c-0.2,0-0.4,0-0.6,0c0.4,1.3,1.6,2.2,3,2.3
  c-1.1,0.9-2.6,1.4-4,1.4c-0.3,0-0.5,0-0.8,0c1.5,1,3.2,1.5,5,1.5c1.1,0,2.2-0.2,3.2-0.5c0.9-0.3,1.8-0.8,2.6-1.5
  c0.7-0.6,1.3-1.3,1.9-2.1c0.5-0.8,0.9-1.6,1.2-2.5c0.3-0.8,0.4-1.7,0.4-2.6c0-0.2,0-0.3,0-0.4c0.6-0.5,1.2-1,1.6-1.7
  C15.2,1.8,14.6,2,14,2L14,2L14,2z"/>
</svg>
