<svg version="1.1" id="icon-star" xmlns="http://www.w3.org/2000/svg" xmlns:xlink="http://www.w3.org/1999/xlink" x="0px" y="0px" viewBox="0 0 11.7 11.2" enable-background="new 0 0 11.7 11.2" xml:space="preserve">
<path fill="#eecf00" d="M11.7,4.3c0-0.2-0.2-0.3-0.4-0.3L7.8,3.5L6.2,0.3C6.2,0.1,6,0,5.8,0C5.6,0,5.5,0.1,5.5,0.3L3.9,3.5L0.4,4
  C0.2,4,0,4.1,0,4.3c0,0.1,0.1,0.3,0.2,0.3l2.6,2.5l-0.6,3.5c0,0,0,0.1,0,0.1c0,0.2,0.1,0.3,0.3,0.3c0,0,0,0,0,0c0.1,0,0.2,0,0.3-0.1
  l3.2-1.7L9,11.1c0.1,0.1,0.2,0.1,0.3,0.1c0.2,0,0.3-0.1,0.3-0.3c0,0,0,0,0,0c0,0,0-0.1,0-0.1L9,7.1l2.6-2.5
  C11.6,4.6,11.7,4.5,11.7,4.3z"/>
</svg>
