<svg version="1.1" id="icon-support" xmlns="http://www.w3.org/2000/svg" xmlns:xlink="http://www.w3.org/1999/xlink" x="0px" y="0px" viewBox="0 0 30 30" enable-background="new 0 0 30 30" xml:space="preserve">
<path fill="#252525" d="M4.4,4.4C3,5.8,1.9,7.4,1.2,9.2c-1.6,3.7-1.6,7.9,0,11.7c1.5,3.6,4.4,6.5,8,8c3.7,1.6,7.9,1.6,11.7,0
  c3.6-1.5,6.5-4.4,8-8c1.6-3.7,1.6-7.9,0-11.7c-1.5-3.6-4.4-6.5-8-8c-3.7-1.6-7.9-1.6-11.7,0C7.4,1.9,5.8,3,4.4,4.4z M21,3.6
  l-3.2,3.2c-1.8-0.6-3.8-0.6-5.6,0L9,3.6C12.7,1.6,17.3,1.6,21,3.6L21,3.6z M2.1,15c0-2.1,0.5-4.2,1.5-6l3.2,3.2
  c-0.6,1.8-0.6,3.8,0,5.6L3.7,21C2.7,19.2,2.1,17.1,2.1,15L2.1,15z M9,26.3l3.2-3.2c1.8,0.6,3.8,0.6,5.6,0l3.2,3.2
  C17.3,28.4,12.7,28.4,9,26.3L9,26.3z M8.6,15c0-3.6,2.9-6.4,6.4-6.4c3.6,0,6.4,2.9,6.4,6.4c0,3.6-2.9,6.4-6.4,6.4
  c-1.7,0-3.3-0.7-4.5-1.9C9.2,18.4,8.5,16.7,8.6,15L8.6,15z M23.6,15c0-1-0.2-1.9-0.5-2.8L26.4,9c2,3.8,2,8.3,0,12.1l-3.2-3.2
  C23.4,16.9,23.6,16,23.6,15L23.6,15z"/>
</svg>
