<svg version="1.1" id="icon-comments" xmlns="http://www.w3.org/2000/svg" xmlns:xlink="http://www.w3.org/1999/xlink" x="0px" y="0px" viewBox="0 0 12 10.3" enable-background="new 0 0 12 10.3" xml:space="preserve">
<path fill="#252525" d="M3.4,3.4C3.2,3.4,3,3.5,2.8,3.7C2.5,4,2.5,4.5,2.8,4.9c0,0,0,0,0,0c0.3,0.3,0.9,0.3,1.2,0
  C4.4,4.5,4.4,4,4,3.7c0,0,0,0,0,0C3.9,3.5,3.7,3.4,3.4,3.4z M6,3.4c-0.2,0-0.4,0.1-0.6,0.3C5.1,4,5.1,4.5,5.4,4.9c0,0,0,0,0,0
  c0.3,0.3,0.9,0.3,1.2,0c0.3-0.3,0.3-0.9,0-1.2c0,0,0,0,0,0C6.4,3.5,6.2,3.4,6,3.4z M8.6,3.4C8.3,3.4,8.1,3.5,8,3.7
  C7.6,4,7.6,4.5,8,4.9c0,0,0,0,0,0c0.3,0.3,0.9,0.3,1.2,0c0.3-0.3,0.3-0.9,0-1.2c0,0,0,0,0,0C9,3.5,8.8,3.4,8.6,3.4z M10.4,2.6
  c0.9,0.9,0.9,2.5,0,3.4C9.9,6.5,9.3,7,8.6,7.2C7.7,7.6,6.9,7.7,6,7.7c-0.3,0-0.6,0-0.9,0l-0.4,0L4.5,7.9C3.9,8.3,3.3,8.7,2.6,9
  C2.8,8.6,3,8.3,3.1,7.9l0.2-0.6L2.7,6.9c-0.5-0.3-1-0.7-1.3-1.2C1,5.3,0.9,4.8,0.9,4.3c0-0.6,0.3-1.2,0.7-1.7c0.5-0.6,1.2-1,1.9-1.3
  c1.6-0.6,3.5-0.6,5.1,0C9.3,1.6,9.9,2,10.4,2.6z M11.5,2.6c-0.3-0.5-0.8-1-1.3-1.4C9.7,0.8,9,0.5,8.3,0.3c-1.5-0.5-3.1-0.5-4.7,0
  C3,0.5,2.3,0.8,1.8,1.2c-0.5,0.4-1,0.8-1.3,1.4C0.2,3.1,0,3.7,0,4.3c0,0.7,0.2,1.3,0.6,1.9c0.4,0.6,1,1.1,1.7,1.5
  c0,0.2-0.1,0.3-0.2,0.5C2,8.3,2,8.4,1.9,8.5C1.8,8.7,1.8,8.8,1.7,8.9C1.6,9,1.6,9.1,1.5,9.1c0,0-0.1,0.1-0.2,0.3S1.1,9.6,1,9.6
  L1,9.7c0,0,0,0,0,0.1c0,0,0,0,0,0.1c0,0,0,0,0,0.1c0,0,0,0,0,0.1c0,0,0,0.1,0,0.1v0c0,0.1,0.1,0.1,0.1,0.2c0,0,0.1,0.1,0.2,0.1h0
  c0.3,0,0.5-0.1,0.8-0.1C3.1,9.8,4.1,9.3,5,8.5c0.3,0,0.7,0,1,0c1,0,2.1-0.2,3-0.6c0.8-0.3,1.6-0.9,2.2-1.6C11.7,5.8,12,5.1,12,4.3
  C12,3.7,11.8,3.1,11.5,2.6L11.5,2.6z"/>
</svg>
