<svg version="1.1" id="search" xmlns="http://www.w3.org/2000/svg" xmlns:xlink="http://www.w3.org/1999/xlink" x="0px" y="0px" viewBox="0 0 14.8 14.8" enable-background="new 0 0 14.8 14.8" xml:space="preserve">
<path fill="#464646" d="M10.2,6.2c0,2.2-1.8,4-4,4s-4-1.8-4-4s1.8-4,4-4S10.2,4,10.2,6.2z M14.8,13.7
  c0-0.3-0.1-0.6-0.3-0.8l-3.1-3.1c2-2.9,1.2-6.7-1.6-8.7C6.9-0.9,3-0.1,1.1,2.7c-2,2.9-1.2,6.7,1.6,8.7c2.1,1.5,5,1.5,7.1,0l3.1,3.1
  c0.2,0.2,0.5,0.3,0.8,0.3C14.3,14.8,14.8,14.3,14.8,13.7L14.8,13.7z"/>
</svg>
