<svg version="1.1" id="cart" xmlns="http://www.w3.org/2000/svg" xmlns:xlink="http://www.w3.org/1999/xlink" x="0px" y="0px" viewBox="0 0 18.3 16" enable-background="new 0 0 18.3 16" xml:space="preserve">
<path fill="#464646" d="M17.1,6.8h-16C0.5,6.8,0,7.4,0,8s0.5,1.1,1.1,1.1h0.1l1,5.9C2.4,15.6,2.9,16,3.4,16h11.4
  c0.6,0,1-0.4,1.1-0.9l1-5.9h0.1c0.6,0,1.1-0.5,1.1-1.1C18.3,7.4,17.8,6.8,17.1,6.8z M4.3,14L4.3,14c-0.3,0-0.6-0.2-0.6-0.5L3.4,9.8
  c0-0.3,0.2-0.6,0.5-0.6c0.3,0,0.6,0.2,0.6,0.5l0.3,3.7C4.9,13.7,4.6,14,4.3,14z M8,13.4C8,13.7,7.7,14,7.4,14
  c-0.3,0-0.6-0.3-0.6-0.6c0,0,0,0,0,0V9.7c0-0.3,0.3-0.6,0.6-0.6c0,0,0,0,0,0C7.7,9.1,8,9.4,8,9.7V13.4z M11.4,13.4
  c0,0.3-0.3,0.6-0.6,0.6c-0.3,0-0.6-0.3-0.6-0.6V9.7c0-0.3,0.3-0.6,0.6-0.6c0.3,0,0.6,0.3,0.6,0.6V13.4z M14.6,13.5
  c0,0.3-0.3,0.5-0.6,0.5H14c-0.3,0-0.5-0.3-0.5-0.6l0.3-3.7c0-0.3,0.3-0.6,0.6-0.5c0.3,0,0.5,0.3,0.5,0.6L14.6,13.5z M4.3,2.6
  c0.1-0.5,0.6-0.9,1.1-0.9h1.5c0,0.3,0.3,0.6,0.6,0.6c0,0,0,0,0,0h3.4c0.3,0,0.6-0.3,0.6-0.6h1.5c0.5,0,1,0.4,1.1,0.9l0.8,3.7H16
  l-0.9-3.9c-0.2-1-1.2-1.8-2.2-1.8h-1.5c0-0.3-0.3-0.6-0.6-0.6H7.4C7.1,0,6.9,0.3,6.9,0.6c0,0,0,0,0,0H5.4c-1.1,0-2,0.7-2.2,1.8
  L2.2,6.3h1.2L4.3,2.6z"/>
</svg>
