<svg version="1.1" id="icon-stars-bg" xmlns="http://www.w3.org/2000/svg" xmlns:xlink="http://www.w3.org/1999/xlink" x="0px" y="0px" viewBox="0 0 63 11" enable-background="new 0 0 63 11" xml:space="preserve">
<path fill="#b7b7b7" d="M11,4.2c0-0.2-0.2-0.3-0.4-0.3L7.3,3.4L5.8,0.3C5.8,0.1,5.6,0,5.5,0S5.2,0.1,5.2,0.3L3.7,3.4L0.4,3.9
  C0.2,3.9,0,4,0,4.2c0,0.1,0.1,0.3,0.2,0.3L2.6,7l-0.6,3.4v0.1c0,0.2,0.1,0.3,0.3,0.3l0,0c0.1,0,0.2,0,0.3-0.1l3-1.7l2.8,1.9
  C8.6,11,8.6,11,8.7,11C8.9,11,9,10.9,9,10.7l0,0v-0.1L8.5,7l2.4-2.5C10.9,4.5,11,4.4,11,4.2z"/>
<path fill="#b7b7b7" d="M24,4.2c0-0.2-0.2-0.3-0.4-0.3l-3.3-0.5l-1.5-3.1c0-0.2-0.2-0.3-0.4-0.3s-0.3,0.1-0.3,0.3l-1.5,3.1l-3.3,0.5
  C13.2,3.9,13,4,13,4.2c0,0.1,0.1,0.3,0.2,0.3L15.6,7l-0.6,3.4v0.1c0,0.2,0.1,0.3,0.3,0.3l0,0c0.1,0,0.2,0,0.3-0.1l3-1.7l2.8,1.9
  c0.1,0.1,0.2,0.1,0.3,0.1c0.2,0,0.3-0.1,0.3-0.3l0,0v-0.1L21.5,7l2.4-2.5C23.9,4.5,24,4.4,24,4.2z"/>
<path fill="#b7b7b7" d="M37,4.2c0-0.2-0.2-0.3-0.4-0.3l-3.3-0.5l-1.5-3.1c0-0.2-0.2-0.3-0.4-0.3s-0.3,0.1-0.3,0.3l-1.5,3.1l-3.3,0.5
  C26.2,3.9,26,4,26,4.2c0,0.1,0.1,0.3,0.2,0.3L28.6,7l-0.6,3.4v0.1c0,0.2,0.1,0.3,0.3,0.3l0,0c0.1,0,0.2,0,0.3-0.1l3-1.7l2.8,1.9
  c0.1,0.1,0.2,0.1,0.3,0.1c0.2,0,0.3-0.1,0.3-0.3l0,0v-0.1L34.5,7l2.4-2.5C36.9,4.5,37,4.4,37,4.2z"/>
<path fill="#b7b7b7" d="M50,4.2c0-0.2-0.2-0.3-0.4-0.3l-3.3-0.5l-1.5-3.1c0-0.2-0.2-0.3-0.4-0.3s-0.3,0.1-0.3,0.3l-1.5,3.1l-3.3,0.5
  C39.2,3.9,39,4,39,4.2c0,0.1,0.1,0.3,0.2,0.3L41.6,7l-0.6,3.4v0.1c0,0.2,0.1,0.3,0.3,0.3l0,0c0.1,0,0.2,0,0.3-0.1l3-1.7l2.8,1.9
  c0.1,0.1,0.2,0.1,0.3,0.1c0.2,0,0.3-0.1,0.3-0.3l0,0v-0.1L47.5,7l2.4-2.5C49.9,4.5,50,4.4,50,4.2z"/>
<path fill="#b7b7b7" d="M63,4.2c0-0.2-0.2-0.3-0.4-0.3l-3.3-0.5l-1.5-3.1c0-0.2-0.2-0.3-0.4-0.3s-0.3,0.1-0.3,0.3l-1.5,3.1l-3.3,0.5
  C52.2,3.9,52,4,52,4.2c0,0.1,0.1,0.3,0.2,0.3L54.6,7l-0.6,3.4v0.1c0,0.2,0.1,0.3,0.3,0.3l0,0c0.1,0,0.2,0,0.3-0.1l3-1.7l2.8,1.9
  c0.1,0.1,0.2,0.1,0.3,0.1c0.2,0,0.3-0.1,0.3-0.3l0,0v-0.1L60.5,7l2.4-2.5C62.9,4.5,63,4.4,63,4.2z"/>
</svg>
